<svg width="210" height="77" viewBox="0 0 210 77" fill="none" xmlns="http://www.w3.org/2000/svg">
<path d="M58.2908 0.799946C57.5546 0.0637423 56.2829 0.13067 55.6806 1.00073L39.618 23.0199L32.3898 32.6575L27.0356 25.4962C29.378 23.2876 29.7796 19.6066 27.8387 16.9295L16.1264 0.799946C15.524 -0.0701129 14.2524 -0.270896 13.3823 0.39838C12.5123 1.00073 12.3115 2.27235 12.9808 3.14241L22.6184 16.3941C22.8861 16.7956 22.8191 17.3311 22.4176 17.6657L20.7444 18.8704C20.3428 19.1381 19.8074 19.0712 19.4728 18.6696L9.83518 5.35102C9.23283 4.48097 7.9612 4.28018 7.09114 4.94946C6.22108 5.55181 6.0203 6.82343 6.68958 7.69349L16.3272 20.9452C16.5949 21.3467 16.5279 21.8821 16.1264 22.2168L14.4532 23.4215C14.0516 23.6892 13.5162 23.6223 13.1816 23.2207L3.54398 9.96903C2.94163 9.09897 1.67001 8.89819 0.799946 9.56746C-0.0701129 10.1698 -0.270896 11.4414 0.39838 12.3115L12.0438 28.3741C14.0516 31.1182 17.7996 31.8544 20.6775 30.1142L27.2364 39.4841L14.587 56.3499C13.0477 58.3577 13.5162 61.2356 15.524 62.708C17.5319 64.1804 20.4097 63.7119 21.8821 61.6372L32.3898 46.7123L42.8974 61.6372C44.3698 63.7119 47.1808 64.1804 49.2555 62.708C51.2634 61.2356 51.7319 58.3577 50.1925 56.3499L37.4763 39.4841L41.7597 33.3937L43.2321 34.4645C45.7753 36.2716 49.3225 35.6023 50.9957 32.9921L54.5428 27.4371C57.6215 22.6184 59.8301 17.398 61.1687 11.9099C62.2395 7.89427 61.1017 3.67783 58.2908 0.799946Z" fill="#3655C7"/>
<path d="M62.223 49.585C62.843 48.6343 63.618 47.8903 64.548 47.353C65.478 46.795 66.5113 46.516 67.648 46.516V52.127H66.191C64.8683 52.127 63.8763 52.4163 63.215 52.995C62.5537 53.553 62.223 54.545 62.223 55.971V64H56.922V46.702H62.223V49.585ZM80.7528 64L75.4828 56.746V64H70.1818V41.06H75.4828V53.739L80.7218 46.702H87.2628L80.0708 55.382L87.3248 64H80.7528ZM97.2189 64.248C95.5242 64.248 93.9949 63.8863 92.6309 63.163C91.2875 62.4397 90.2232 61.4063 89.4379 60.063C88.6732 58.7197 88.2909 57.149 88.2909 55.351C88.2909 53.5737 88.6835 52.0133 89.4689 50.67C90.2542 49.306 91.3289 48.2623 92.6929 47.539C94.0569 46.8157 95.5862 46.454 97.2809 46.454C98.9755 46.454 100.505 46.8157 101.869 47.539C103.233 48.2623 104.308 49.306 105.093 50.67C105.878 52.0133 106.271 53.5737 106.271 55.351C106.271 57.1283 105.868 58.699 105.062 60.063C104.277 61.4063 103.192 62.4397 101.807 63.163C100.443 63.8863 98.9135 64.248 97.2189 64.248ZM97.2189 59.66C98.2315 59.66 99.0892 59.288 99.7919 58.544C100.515 57.8 100.877 56.7357 100.877 55.351C100.877 53.9663 100.526 52.902 99.8229 52.158C99.1409 51.414 98.2935 51.042 97.2809 51.042C96.2475 51.042 95.3899 51.414 94.7079 52.158C94.0259 52.8813 93.6849 53.9457 93.6849 55.351C93.6849 56.7357 94.0155 57.8 94.6769 58.544C95.3589 59.288 96.2062 59.66 97.2189 59.66ZM116.12 64.248C114.611 64.248 113.268 63.9897 112.09 63.473C110.912 62.9563 109.982 62.2537 109.3 61.365C108.618 60.4557 108.236 59.443 108.153 58.327H113.392C113.454 58.9263 113.733 59.412 114.229 59.784C114.725 60.156 115.335 60.342 116.058 60.342C116.719 60.342 117.226 60.218 117.577 59.97C117.949 59.7013 118.135 59.3603 118.135 58.947C118.135 58.451 117.877 58.0893 117.36 57.862C116.843 57.614 116.006 57.3453 114.849 57.056C113.609 56.7667 112.576 56.467 111.749 56.157C110.922 55.8263 110.209 55.32 109.61 54.638C109.011 53.9353 108.711 52.995 108.711 51.817C108.711 50.825 108.98 49.926 109.517 49.12C110.075 48.2933 110.881 47.6423 111.935 47.167C113.01 46.6917 114.281 46.454 115.748 46.454C117.918 46.454 119.623 46.9913 120.863 48.066C122.124 49.1407 122.847 50.5667 123.033 52.344H118.135C118.052 51.7447 117.784 51.2693 117.329 50.918C116.895 50.5667 116.316 50.391 115.593 50.391C114.973 50.391 114.498 50.515 114.167 50.763C113.836 50.9903 113.671 51.3107 113.671 51.724C113.671 52.22 113.929 52.592 114.446 52.84C114.983 53.088 115.81 53.336 116.926 53.584C118.207 53.9147 119.251 54.2453 120.057 54.576C120.863 54.886 121.566 55.4027 122.165 56.126C122.785 56.8287 123.105 57.7793 123.126 58.978C123.126 59.9907 122.837 60.9 122.258 61.706C121.7 62.4913 120.884 63.1113 119.809 63.566C118.755 64.0207 117.525 64.248 116.12 64.248ZM147.504 42.455V45.338H138.359V51.693H145.489V54.576H138.359V64H134.825V42.455H147.504ZM158.188 64.279C156.576 64.279 155.119 63.9173 153.817 63.194C152.515 62.45 151.492 61.4167 150.748 60.094C150.004 58.7507 149.632 57.2007 149.632 55.444C149.632 53.708 150.014 52.1683 150.779 50.825C151.544 49.4817 152.587 48.4483 153.91 47.725C155.233 47.0017 156.71 46.64 158.343 46.64C159.976 46.64 161.453 47.0017 162.776 47.725C164.099 48.4483 165.142 49.4817 165.907 50.825C166.672 52.1683 167.054 53.708 167.054 55.444C167.054 57.18 166.661 58.7197 165.876 60.063C165.091 61.4063 164.016 62.45 162.652 63.194C161.309 63.9173 159.821 64.279 158.188 64.279ZM158.188 61.21C159.097 61.21 159.945 60.993 160.73 60.559C161.536 60.125 162.187 59.474 162.683 58.606C163.179 57.738 163.427 56.684 163.427 55.444C163.427 54.204 163.189 53.1603 162.714 52.313C162.239 51.445 161.608 50.794 160.823 50.36C160.038 49.926 159.19 49.709 158.281 49.709C157.372 49.709 156.524 49.926 155.739 50.36C154.974 50.794 154.365 51.445 153.91 52.313C153.455 53.1603 153.228 54.204 153.228 55.444C153.228 57.2833 153.693 58.7093 154.623 59.722C155.574 60.714 156.762 61.21 158.188 61.21ZM177.957 64.279C176.345 64.279 174.888 63.9173 173.586 63.194C172.284 62.45 171.261 61.4167 170.517 60.094C169.773 58.7507 169.401 57.2007 169.401 55.444C169.401 53.708 169.783 52.1683 170.548 50.825C171.312 49.4817 172.356 48.4483 173.679 47.725C175.001 47.0017 176.479 46.64 178.112 46.64C179.744 46.64 181.222 47.0017 182.545 47.725C183.867 48.4483 184.911 49.4817 185.676 50.825C186.44 52.1683 186.823 53.708 186.823 55.444C186.823 57.18 186.43 58.7197 185.645 60.063C184.859 61.4063 183.785 62.45 182.421 63.194C181.077 63.9173 179.589 64.279 177.957 64.279ZM177.957 61.21C178.866 61.21 179.713 60.993 180.499 60.559C181.305 60.125 181.956 59.474 182.452 58.606C182.948 57.738 183.196 56.684 183.196 55.444C183.196 54.204 182.958 53.1603 182.483 52.313C182.007 51.445 181.377 50.794 180.592 50.36C179.806 49.926 178.959 49.709 178.05 49.709C177.14 49.709 176.293 49.926 175.508 50.36C174.743 50.794 174.133 51.445 173.679 52.313C173.224 53.1603 172.997 54.204 172.997 55.444C172.997 57.2833 173.462 58.7093 174.392 59.722C175.342 60.714 176.531 61.21 177.957 61.21ZM189.138 55.382C189.138 53.6667 189.49 52.1477 190.192 50.825C190.916 49.5023 191.887 48.4793 193.106 47.756C194.346 47.012 195.721 46.64 197.229 46.64C198.345 46.64 199.441 46.888 200.515 47.384C201.611 47.8593 202.479 48.5 203.119 49.306V41.06H206.684V64H203.119V61.427C202.541 62.2537 201.735 62.9357 200.701 63.473C199.689 64.0103 198.521 64.279 197.198 64.279C195.71 64.279 194.346 63.907 193.106 63.163C191.887 62.3983 190.916 61.3443 190.192 60.001C189.49 58.637 189.138 57.0973 189.138 55.382ZM203.119 55.444C203.119 54.266 202.871 53.243 202.375 52.375C201.9 51.507 201.27 50.8457 200.484 50.391C199.699 49.9363 198.852 49.709 197.942 49.709C197.033 49.709 196.186 49.9363 195.4 50.391C194.615 50.825 193.974 51.476 193.478 52.344C193.003 53.1913 192.765 54.204 192.765 55.382C192.765 56.56 193.003 57.5933 193.478 58.482C193.974 59.3707 194.615 60.0527 195.4 60.528C196.206 60.9827 197.054 61.21 197.942 61.21C198.852 61.21 199.699 60.9827 200.484 60.528C201.27 60.0733 201.9 59.412 202.375 58.544C202.871 57.6553 203.119 56.622 203.119 55.444Z" fill="#3655C7"/>
</svg>
