<svg width="546" height="456" viewBox="0 0 546 456" fill="none" xmlns="http://www.w3.org/2000/svg">
<g clip-path="url(#clip0_21_451)">
<path d="M224.977 107.304H222.498V39.3373C222.498 34.1714 221.481 29.0561 219.506 24.2835C217.53 19.5109 214.635 15.1744 210.985 11.5216C207.335 7.86876 203.002 4.9712 198.233 2.99432C193.464 1.01745 188.353 -3.14203e-05 183.191 -1.52586e-05H39.3067C34.1449 -3.14203e-05 29.0336 1.01745 24.2647 2.99432C19.4958 4.9712 15.1626 7.86877 11.5127 11.5216C7.86269 15.1744 4.96737 19.5109 2.99202 24.2835C1.01668 29.0562 -8.07452e-06 34.1714 0 39.3373V412.207C-4.8447e-06 417.373 1.01669 422.489 2.99203 427.261C4.96738 432.034 7.8627 436.37 11.5127 440.023C15.1626 443.676 19.4958 446.574 24.2647 448.55C29.0336 450.527 34.1449 451.545 39.3067 451.545H183.191C188.353 451.545 193.464 450.527 198.233 448.55C203.002 446.574 207.335 443.676 210.985 440.023C214.635 436.37 217.53 432.034 219.506 427.261C221.481 422.489 222.498 417.373 222.498 412.207V155.684H224.977V107.304Z" fill="#E6E6E6"/>
<path d="M184.777 10.2342H165.995C166.859 12.3534 167.189 14.6527 166.955 16.9295C166.722 19.2062 165.933 21.3906 164.657 23.2902C163.381 25.1898 161.659 26.7463 159.64 27.8226C157.622 28.8989 155.37 29.4619 153.083 29.4621H70.6538C68.3669 29.4619 66.1151 28.8989 64.0968 27.8226C62.0785 26.7463 60.3556 25.1898 59.08 23.2902C57.8044 21.3906 57.0151 19.2062 56.7818 16.9295C56.5484 14.6527 56.8781 12.3534 57.7418 10.2342H40.1997C36.3449 10.2342 32.5279 10.994 28.9665 12.4704C25.4052 13.9467 22.1692 16.1105 19.4435 18.8384C16.7177 21.5663 14.5556 24.8047 13.0804 28.3688C11.6052 31.933 10.846 35.753 10.8459 39.6108V411.934C10.8459 415.792 11.6052 419.612 13.0804 423.176C14.5555 426.74 16.7177 429.979 19.4435 432.706C22.1692 435.434 25.4052 437.598 28.9665 439.074C32.5279 440.551 36.3449 441.311 40.1997 441.311H184.777C188.632 441.311 192.449 440.551 196.01 439.074C199.571 437.598 202.807 435.434 205.533 432.706C208.259 429.979 210.421 426.74 211.896 423.176C213.371 419.612 214.131 415.792 214.131 411.934V39.6108C214.131 35.753 213.371 31.933 211.896 28.3688C210.421 24.8047 208.259 21.5663 205.533 18.8384C202.807 16.1105 199.571 13.9467 196.01 12.4704C192.449 10.994 188.632 10.2342 184.777 10.2342Z" fill="white"/>
<path d="M69.8932 85.9234H61.2609C60.9574 85.9234 60.6663 86.0441 60.4517 86.2589C60.237 86.4737 60.1165 86.765 60.1165 87.0688V90.8607C60.1165 91.1645 60.237 91.4558 60.4517 91.6706C60.6663 91.8854 60.9574 92.0061 61.2609 92.0061H62.6914V97.6877H68.4627V92.0061H69.8932C70.1967 92.0061 70.4878 91.8854 70.7024 91.6706C70.9171 91.4558 71.0376 91.1645 71.0376 90.8607V87.0688C71.0376 86.765 70.9171 86.4737 70.7024 86.2589C70.4878 86.0441 70.1967 85.9234 69.8932 85.9234Z" fill="#E6E6E6"/>
<path d="M78.5393 120.627C73.2526 112.885 70.55 103.667 70.8186 94.2942C70.8234 94.0779 70.7532 93.8667 70.62 93.6963C70.4869 93.5259 70.2989 93.4069 70.0879 93.3594V91.721H60.9711V93.3367H60.8455C60.5974 93.337 60.3596 93.4359 60.1844 93.6117C60.0092 93.7875 59.911 94.0258 59.9113 94.2741C59.9113 94.2968 59.9122 94.3195 59.9138 94.3422C60.6321 104.362 58.2068 113.348 52.6379 121.299C52.3174 121.756 52.1537 122.305 52.1713 122.863L53.1682 153.723C53.1922 154.411 53.4808 155.064 53.974 155.544C54.4671 156.025 55.1266 156.296 55.8148 156.301H76.4356C77.1317 156.296 77.798 156.018 78.2927 155.528C78.7873 155.038 79.0712 154.374 79.0838 153.677L79.468 123.715C79.4794 122.615 79.1554 121.538 78.5393 120.627Z" fill="#E6E6E6"/>
<path d="M75.275 130.878H57.3261C57.0604 130.878 56.7979 130.935 56.5565 131.046C56.3151 131.157 56.1005 131.319 55.9275 131.521C55.7545 131.723 55.6272 131.96 55.5542 132.216C55.4812 132.471 55.4644 132.74 55.5048 133.002L58.2171 150.646H73.7917L77.0862 133.062C77.1361 132.796 77.1267 132.521 77.0588 132.259C76.9908 131.997 76.8659 131.753 76.693 131.544C76.5201 131.336 76.3034 131.168 76.0583 131.053C75.8132 130.938 75.5457 130.878 75.275 130.878Z" fill="white"/>
<path d="M165.987 178.369H157.355C157.051 178.369 156.76 178.49 156.545 178.705C156.331 178.92 156.21 179.211 156.21 179.515V183.307C156.21 183.61 156.331 183.902 156.545 184.117C156.76 184.331 157.051 184.452 157.355 184.452H158.785V190.134H164.556V184.452H165.987C166.29 184.452 166.582 184.331 166.796 184.117C167.011 183.902 167.131 183.61 167.131 183.307V179.515C167.131 179.211 167.011 178.92 166.796 178.705C166.581 178.49 166.29 178.369 165.987 178.369Z" fill="#E6E6E6"/>
<path d="M174.633 213.073C169.346 205.331 166.644 196.113 166.912 186.74C166.917 186.524 166.847 186.313 166.714 186.142C166.581 185.972 166.393 185.853 166.182 185.805V184.167H157.065V185.783H156.939C156.816 185.783 156.695 185.807 156.581 185.854C156.468 185.902 156.365 185.971 156.278 186.058C156.191 186.145 156.123 186.248 156.076 186.362C156.029 186.475 156.005 186.597 156.005 186.72C156.005 186.743 156.006 186.766 156.008 186.788C156.726 196.808 154.301 205.794 148.732 213.745C148.411 214.202 148.247 214.751 148.265 215.309L149.262 246.169C149.286 246.857 149.575 247.51 150.068 247.99C150.561 248.471 151.22 248.742 151.909 248.747H172.529C173.225 248.742 173.892 248.464 174.386 247.974C174.881 247.484 175.165 246.82 175.178 246.123L175.562 216.161C175.573 215.061 175.249 213.984 174.633 213.073Z" fill="#E6E6E6"/>
<path d="M171.369 223.324H153.42C153.154 223.324 152.892 223.381 152.65 223.492C152.409 223.603 152.194 223.765 152.021 223.967C151.848 224.169 151.721 224.406 151.648 224.662C151.575 224.917 151.558 225.186 151.599 225.448L154.311 243.092H169.885L173.18 225.508C173.23 225.242 173.22 224.967 173.152 224.705C173.085 224.443 172.96 224.199 172.787 223.99C172.614 223.782 172.397 223.614 172.152 223.499C171.907 223.384 171.639 223.324 171.369 223.324H171.369Z" fill="white"/>
<path d="M57.7574 309.061H53.6627C53.5187 309.061 53.3806 309.118 53.2788 309.22C53.177 309.322 53.1198 309.46 53.1198 309.604V311.403C53.1198 311.547 53.177 311.685 53.2788 311.787C53.3806 311.889 53.5187 311.946 53.6627 311.946H54.3412V314.641H57.0788V311.946H57.7574C57.9013 311.946 58.0394 311.889 58.1412 311.787C58.243 311.685 58.3002 311.547 58.3002 311.403V309.604C58.3002 309.46 58.243 309.322 58.1412 309.22C58.0394 309.118 57.9013 309.061 57.7574 309.061Z" fill="#E6E6E6"/>
<path d="M61.8586 325.522C59.3509 321.85 58.0689 317.478 58.1963 313.032C58.1986 312.929 58.1653 312.829 58.1021 312.748C58.039 312.667 57.9498 312.611 57.8497 312.588V311.811H53.5252V312.577H53.4656C53.4074 312.577 53.3497 312.589 53.2959 312.611C53.2421 312.634 53.1932 312.667 53.152 312.708C53.1109 312.749 53.0783 312.798 53.056 312.852C53.0338 312.906 53.0224 312.964 53.0225 313.022C53.0225 313.033 53.0229 313.044 53.0237 313.054C53.4228 317.591 52.1998 322.123 49.5724 325.841C49.4204 326.058 49.3427 326.318 49.3511 326.583L49.8239 341.221C49.8353 341.548 49.9722 341.857 50.2061 342.085C50.44 342.313 50.7529 342.442 51.0793 342.444H60.8607C61.1909 342.442 61.507 342.31 61.7416 342.078C61.9762 341.845 62.1109 341.53 62.1169 341.2L62.2991 326.987C62.3045 326.465 62.1508 325.954 61.8586 325.522Z" fill="#E6E6E6"/>
<path d="M60.4509 330.903H51.1178V335.574H60.4509V330.903Z" fill="white"/>
<path d="M76.8182 309.061H72.7235C72.5795 309.061 72.4414 309.118 72.3396 309.22C72.2378 309.322 72.1806 309.46 72.1806 309.604V311.403C72.1806 311.547 72.2378 311.685 72.3396 311.787C72.4414 311.889 72.5795 311.946 72.7235 311.946H73.402V314.641H76.1396V311.946H76.8182C76.9621 311.946 77.1002 311.889 77.202 311.787C77.3038 311.685 77.361 311.547 77.361 311.403V309.604C77.361 309.46 77.3038 309.322 77.202 309.22C77.1002 309.118 76.9621 309.061 76.8182 309.061Z" fill="#E6E6E6"/>
<path d="M80.9194 325.522C78.4117 321.85 77.1297 317.478 77.2571 313.032C77.2594 312.929 77.2261 312.829 77.1629 312.748C77.0997 312.667 77.0106 312.611 76.9105 312.588V311.811H72.586V312.577H72.5264C72.4681 312.577 72.4105 312.589 72.3567 312.611C72.3029 312.634 72.254 312.667 72.2128 312.708C72.1717 312.749 72.139 312.798 72.1168 312.852C72.0946 312.906 72.0832 312.964 72.0833 313.022C72.0833 313.033 72.0837 313.044 72.0845 313.054C72.4836 317.591 71.2606 322.123 68.6332 325.841C68.4812 326.058 68.4035 326.318 68.4119 326.583L68.8847 341.221C68.8961 341.548 69.033 341.857 69.2669 342.085C69.5008 342.313 69.8137 342.442 70.1401 342.444H79.9215C80.2517 342.442 80.5678 342.31 80.8024 342.078C81.037 341.845 81.1717 341.53 81.1777 341.2L81.3599 326.987C81.3653 326.465 81.2116 325.954 80.9194 325.522Z" fill="#E6E6E6"/>
<path d="M79.5117 330.903H70.1786V335.574H79.5117V330.903Z" fill="white"/>
<path d="M95.8789 309.061H91.7843C91.6403 309.061 91.5022 309.118 91.4004 309.22C91.2986 309.322 91.2414 309.46 91.2414 309.604V311.403C91.2414 311.547 91.2986 311.685 91.4004 311.787C91.5022 311.889 91.6403 311.946 91.7843 311.946H92.4628V314.641H95.2004V311.946H95.8789C96.0229 311.946 96.161 311.889 96.2628 311.787C96.3646 311.685 96.4218 311.547 96.4218 311.403V309.604C96.4218 309.46 96.3646 309.322 96.2628 309.22C96.161 309.118 96.0229 309.061 95.8789 309.061Z" fill="#E6E6E6"/>
<path d="M99.9802 325.522C97.4725 321.85 96.1905 317.478 96.3179 313.032C96.3202 312.929 96.2869 312.829 96.2237 312.748C96.1605 312.667 96.0714 312.611 95.9713 312.588V311.811H91.6468V312.577H91.5872C91.5289 312.577 91.4713 312.589 91.4174 312.611C91.3636 312.634 91.3148 312.667 91.2736 312.708C91.2325 312.749 91.1998 312.798 91.1776 312.852C91.1554 312.906 91.144 312.964 91.1441 313.022C91.1441 313.033 91.1445 313.044 91.1453 313.054C91.5444 317.591 90.3214 322.123 87.694 325.841C87.542 326.058 87.4643 326.318 87.4727 326.583L87.9455 341.221C87.9569 341.548 88.0938 341.857 88.3277 342.085C88.5616 342.313 88.8745 342.442 89.2009 342.444H98.9823C99.3125 342.442 99.6285 342.31 99.8632 342.078C100.098 341.845 100.232 341.53 100.238 341.2L100.421 326.987C100.426 326.465 100.272 325.954 99.9802 325.522Z" fill="#E6E6E6"/>
<path d="M98.5725 330.903H89.2394V335.574H98.5725V330.903Z" fill="white"/>
<path d="M150.991 273.297H142.358C142.208 273.297 142.059 273.327 141.92 273.384C141.782 273.442 141.655 273.526 141.549 273.633C141.443 273.739 141.359 273.865 141.301 274.004C141.244 274.143 141.214 274.292 141.214 274.443V278.235C141.214 278.538 141.335 278.83 141.549 279.044C141.764 279.259 142.055 279.38 142.358 279.38H143.789V285.061H149.56V279.38H150.991C151.294 279.38 151.585 279.259 151.8 279.044C152.015 278.83 152.135 278.538 152.135 278.235V274.443C152.135 274.292 152.106 274.143 152.048 274.004C151.991 273.865 151.906 273.739 151.8 273.633C151.694 273.526 151.568 273.442 151.429 273.384C151.29 273.327 151.141 273.297 150.991 273.297Z" fill="#E6E6E6"/>
<path d="M159.637 308.001C154.35 300.259 151.648 291.041 151.916 281.668C151.921 281.452 151.851 281.24 151.718 281.07C151.584 280.9 151.396 280.781 151.185 280.733V279.095H142.069V280.71H141.943C141.82 280.711 141.699 280.735 141.585 280.782C141.472 280.829 141.369 280.898 141.282 280.986C141.195 281.073 141.126 281.176 141.08 281.29C141.033 281.403 141.009 281.525 141.009 281.648C141.009 281.671 141.01 281.693 141.011 281.716C141.73 291.736 139.304 300.721 133.735 308.673C133.415 309.13 133.251 309.678 133.269 310.236L134.266 341.097C134.29 341.785 134.578 342.438 135.071 342.918C135.565 343.398 136.224 343.67 136.912 343.675H157.533C158.229 343.669 158.896 343.392 159.39 342.902C159.885 342.412 160.169 341.748 160.181 341.051L160.566 311.088C160.577 309.989 160.253 308.912 159.637 308.001Z" fill="#E6E6E6"/>
<path d="M156.373 318.252H138.424C138.158 318.252 137.895 318.309 137.654 318.42C137.413 318.531 137.198 318.693 137.025 318.895C136.852 319.097 136.725 319.334 136.652 319.589C136.579 319.845 136.562 320.113 136.602 320.376L139.315 338.02H154.889L158.184 320.436C158.234 320.169 158.224 319.895 158.156 319.633C158.088 319.371 157.963 319.127 157.791 318.918C157.618 318.71 157.401 318.542 157.156 318.427C156.911 318.311 156.643 318.252 156.373 318.252Z" fill="white"/>
<path d="M155.703 160.274H104.247C107.844 140.809 107.017 117.304 104.247 92.0254H155.703C153.007 117.304 152.201 140.809 155.703 160.274Z" fill="#E6E6E6"/>
<path d="M130.285 136.697C137.133 136.697 142.684 131.142 142.684 124.288C142.684 117.435 137.133 111.88 130.285 111.88C123.437 111.88 117.886 117.435 117.886 124.288C117.886 131.142 123.437 136.697 130.285 136.697Z" fill="white"/>
<path d="M108.586 250.859H57.1297C60.7272 231.393 59.8996 207.888 57.1297 182.61H108.586C105.89 207.888 105.084 231.393 108.586 250.859Z" fill="#E6E6E6"/>
<path d="M83.168 227.282C90.0159 227.282 95.5672 221.726 95.5672 214.873C95.5672 208.02 90.0159 202.464 83.168 202.464C76.3202 202.464 70.7689 208.02 70.7689 214.873C70.7689 221.726 76.3202 227.282 83.168 227.282Z" fill="white"/>
<path d="M184.841 164.617H133.385C136.982 145.152 136.155 121.647 133.385 96.3685H184.841C182.145 121.647 181.34 145.152 184.841 164.617Z" fill="#E6E6E6"/>
<path d="M159.423 141.04C166.271 141.04 171.822 135.485 171.822 128.632C171.822 121.778 166.271 116.223 159.423 116.223C152.575 116.223 147.024 121.778 147.024 128.632C147.024 135.485 152.575 141.04 159.423 141.04Z" fill="white"/>
<path d="M184.841 161.515H133.385C136.982 142.05 136.155 118.544 133.385 93.2663H184.841C182.145 118.545 181.34 142.05 184.841 161.515Z" fill="#E6E6E6"/>
<path d="M159.423 137.938C166.271 137.938 171.822 132.383 171.822 125.529C171.822 118.676 166.271 113.12 159.423 113.12C152.575 113.12 147.024 118.676 147.024 125.529C147.024 132.383 152.575 137.938 159.423 137.938Z" fill="white"/>
<path d="M184.841 164.617H133.385C136.982 145.152 136.155 121.647 133.385 96.3685H184.841C182.145 121.647 181.34 145.152 184.841 164.617Z" fill="#E6E6E6"/>
<path d="M159.423 141.04C166.271 141.04 171.822 135.485 171.822 128.632C171.822 121.778 166.271 116.223 159.423 116.223C152.575 116.223 147.024 121.778 147.024 128.632C147.024 135.485 152.575 141.04 159.423 141.04Z" fill="white"/>
<path d="M196.621 156.551H27.9916V175.165H196.621V156.551Z" fill="#E6E6E6"/>
<path d="M196.621 248.997H27.9916V267.611H196.621V248.997Z" fill="#E6E6E6"/>
<path d="M196.621 341.443H27.9916V360.057H196.621V341.443Z" fill="#E6E6E6"/>
<path d="M489.958 416.957L447.947 387.22C462.116 373.407 475.003 353.738 487.327 331.5L529.337 361.237C512.551 380.316 498.33 399.041 489.958 416.957Z" fill="#3655C7"/>
<path d="M489.969 385.297C496.817 385.297 502.369 379.741 502.369 372.888C502.369 366.035 496.817 360.479 489.969 360.479C483.122 360.479 477.57 366.035 477.57 372.888C477.57 379.741 483.122 385.297 489.969 385.297Z" fill="white"/>
<path d="M287.303 281.261H282.692C282.53 281.261 282.374 281.325 282.259 281.44C282.145 281.554 282.08 281.71 282.08 281.872V283.898C282.08 283.978 282.096 284.058 282.127 284.132C282.158 284.207 282.203 284.274 282.259 284.331C282.316 284.388 282.384 284.433 282.458 284.463C282.532 284.494 282.611 284.51 282.692 284.51H283.456V287.545H286.539V284.51H287.303C287.465 284.51 287.621 284.446 287.736 284.331C287.85 284.216 287.915 284.06 287.915 283.898V281.872C287.915 281.71 287.85 281.555 287.736 281.44C287.621 281.325 287.465 281.261 287.303 281.261Z" fill="#E6E6E6"/>
<path d="M291.922 299.8C289.098 295.664 287.654 290.74 287.798 285.732C287.8 285.617 287.763 285.504 287.692 285.413C287.62 285.322 287.52 285.258 287.407 285.233V284.358H282.537V285.221H282.47C282.404 285.221 282.339 285.234 282.279 285.259C282.218 285.284 282.163 285.321 282.117 285.368C282.07 285.414 282.034 285.469 282.009 285.53C281.984 285.591 281.971 285.656 281.971 285.722C281.971 285.734 281.971 285.746 281.972 285.758C282.422 290.867 281.044 295.971 278.085 300.159C277.914 300.403 277.827 300.696 277.836 300.994L278.369 317.48C278.381 317.848 278.536 318.196 278.799 318.453C279.062 318.71 279.415 318.854 279.782 318.857H290.798C291.17 318.854 291.526 318.706 291.79 318.444C292.055 318.182 292.206 317.828 292.213 317.456L292.418 301.449C292.424 300.862 292.251 300.286 291.922 299.8Z" fill="#3655C7"/>
<path opacity="0.2" d="M286.342 281.921C286.342 282.271 286.203 282.606 285.956 282.854C285.708 283.102 285.373 283.241 285.023 283.241C284.673 283.241 284.338 283.102 284.09 282.854C283.843 282.606 283.704 282.271 283.704 281.921" fill="black"/>
<path d="M289.777 302.976H280.477V309.18H289.777V302.976Z" fill="white"/>
<path d="M433.235 345.665H424.603C424.299 345.665 424.008 345.785 423.794 346C423.579 346.215 423.459 346.506 423.459 346.81V350.602C423.459 350.906 423.579 351.197 423.794 351.412C424.008 351.627 424.299 351.747 424.603 351.747H426.033V357.429H431.805V351.747H433.235C433.539 351.747 433.83 351.627 434.044 351.412C434.259 351.197 434.38 350.906 434.38 350.602V346.81C434.38 346.506 434.259 346.215 434.044 346C433.83 345.785 433.539 345.665 433.235 345.665Z" fill="#E6E6E6"/>
<path d="M441.881 380.368C436.595 372.626 433.892 363.409 434.161 354.036C434.165 353.819 434.095 353.608 433.962 353.438C433.829 353.267 433.641 353.148 433.43 353.101V351.462H424.313V353.078H424.188C424.065 353.078 423.943 353.103 423.83 353.15C423.716 353.197 423.613 353.266 423.527 353.353C423.44 353.44 423.371 353.543 423.324 353.657C423.277 353.771 423.253 353.892 423.253 354.015C423.253 354.038 423.254 354.061 423.256 354.084C423.974 364.103 421.549 373.089 415.98 381.04C415.66 381.497 415.496 382.046 415.513 382.604L416.51 413.464C416.534 414.152 416.823 414.805 417.316 415.285C417.809 415.766 418.469 416.037 419.157 416.043H439.778C440.474 416.037 441.14 415.759 441.635 415.269C442.129 414.779 442.413 414.115 442.426 413.419L442.81 383.456C442.821 382.356 442.497 381.279 441.881 380.368Z" fill="#3655C7"/>
<path opacity="0.2" d="M431.436 346.9C431.436 347.556 431.176 348.184 430.713 348.648C430.249 349.111 429.621 349.371 428.967 349.371C428.312 349.371 427.684 349.111 427.221 348.648C426.758 348.184 426.497 347.556 426.497 346.9" fill="black"/>
<path d="M438.617 390.619H420.668C420.403 390.619 420.14 390.677 419.899 390.788C419.657 390.899 419.443 391.061 419.27 391.263C419.097 391.464 418.969 391.701 418.896 391.957C418.823 392.213 418.806 392.481 418.847 392.744L421.559 410.388H437.134L440.428 392.803C440.478 392.537 440.469 392.263 440.401 392.001C440.333 391.738 440.208 391.494 440.035 391.286C439.862 391.077 439.645 390.909 439.4 390.794C439.155 390.679 438.888 390.619 438.617 390.619Z" fill="white"/>
<path d="M408.606 416.908H357.149C360.747 397.443 359.919 373.938 357.149 348.659H408.606C405.91 373.938 405.104 397.443 408.606 416.908Z" fill="#3655C7"/>
<path d="M383.188 393.331C390.036 393.331 395.587 387.776 395.587 380.922C395.587 374.069 390.036 368.514 383.188 368.514C376.34 368.514 370.788 374.069 370.788 380.922C370.788 387.776 376.34 393.331 383.188 393.331Z" fill="white"/>
<path d="M198.136 202.12L209.687 201.069L217.039 183.203L203.912 175.846L198.136 202.12Z" fill="#FFB8B8"/>
<path d="M304.149 251.168C304.533 250.209 304.684 249.173 304.59 248.144C304.495 247.116 304.158 246.124 303.605 245.252C303.052 244.38 302.301 243.651 301.412 243.127C300.523 242.602 299.522 242.296 298.491 242.235L280.556 241.165L277.915 249.953L296.379 255.028C297.922 255.452 299.566 255.293 301 254.581C302.433 253.869 303.554 252.654 304.149 251.168Z" fill="#FFB8B8"/>
<path d="M284.891 255.175L284.693 238.684L244.854 232.323L214.163 197.096C212.566 195.263 210.36 194.071 207.953 193.742C205.545 193.412 203.1 193.967 201.07 195.304C199.841 196.113 198.805 197.182 198.034 198.437C197.264 199.691 196.778 201.099 196.611 202.562C196.444 204.025 196.6 205.506 197.068 206.902C197.536 208.298 198.305 209.574 199.32 210.639L224.64 241.824L284.891 255.175Z" fill="#3655C7"/>
<path d="M189.21 440.689H199.711L225.759 322.83L252.743 359.239L268.496 438.062H278.472L276.372 353.459L241.192 263.076H206.537C197.067 280.228 189.638 297.91 198.136 316.15L189.21 440.689Z" fill="#2F2E41"/>
<path d="M262.058 447.848C261.942 448.22 261.906 448.612 261.954 448.999C262.001 449.385 262.13 449.758 262.332 450.091C262.534 450.423 262.805 450.709 263.126 450.929C263.447 451.15 263.812 451.299 264.195 451.367L289.892 455.93C290.908 456.116 291.956 455.924 292.84 455.39C293.723 454.856 294.381 454.016 294.689 453.03C294.988 452.088 294.946 451.07 294.571 450.156C294.195 449.241 293.509 448.489 292.634 448.03C286.984 445.127 282.121 440.896 278.462 435.7C275.638 438.332 272.481 438.084 269.129 436.144L265.574 436.589L262.058 447.848Z" fill="#2F2E41"/>
<path d="M184.347 447.848C184.231 448.22 184.196 448.612 184.243 448.999C184.29 449.385 184.419 449.758 184.621 450.091C184.823 450.423 185.094 450.709 185.415 450.929C185.737 451.15 186.101 451.299 186.484 451.367L212.181 455.93C213.197 456.116 214.245 455.924 215.129 455.39C216.012 454.856 216.67 454.016 216.978 453.03C217.277 452.088 217.236 451.07 216.86 450.156C216.484 449.241 215.798 448.489 214.923 448.03C209.273 445.127 204.41 440.896 200.751 435.7C197.927 438.332 194.77 438.084 191.418 436.144L187.863 436.589L184.347 447.848Z" fill="#2F2E41"/>
<path d="M217.301 189.771C225.421 189.771 232.003 183.184 232.003 175.058C232.003 166.931 225.421 160.344 217.301 160.344C209.181 160.344 202.599 166.931 202.599 175.058C202.599 183.184 209.181 189.771 217.301 189.771Z" fill="#FFB8B8"/>
<path d="M204.174 267.017L242.505 265.966L231.248 230.51C238.243 219.287 231.203 208.075 221.239 196.865L213.363 191.61L200.761 190.559C195.305 196.402 192.32 204.131 192.43 212.127C192.68 229.25 195.709 247.89 204.174 267.017Z" fill="#3655C7"/>
<path d="M292.24 290.883C292.97 290.153 293.516 289.259 293.833 288.277C294.151 287.294 294.23 286.25 294.065 285.23C293.9 284.21 293.495 283.245 292.884 282.412C292.273 281.58 291.473 280.905 290.55 280.443L274.481 272.398L268.598 279.438L283.579 291.373C284.83 292.37 286.405 292.871 288.003 292.781C289.6 292.691 291.108 292.015 292.24 290.883Z" fill="#FFB8B8"/>
<path d="M272.959 286.985L279.26 271.746L245.134 250.213L230.764 205.743C230.016 203.43 228.456 201.466 226.372 200.215C224.289 198.964 221.823 198.512 219.431 198.941C217.983 199.202 216.61 199.777 215.408 200.626C214.207 201.476 213.207 202.58 212.478 203.859C211.75 205.138 211.311 206.561 211.192 208.029C211.074 209.497 211.28 210.972 211.794 212.352L222.814 250.99L272.959 286.985Z" fill="#3655C7"/>
<path d="M193.148 169.277C193.148 175.002 196.863 183.869 201.549 187.669C204.702 190.226 208.869 190.119 210.475 186.618C212.123 183.027 217.804 174.587 227.803 169.277C241.131 162.199 223.076 150.09 210.475 151.936C201.006 153.324 193.148 159.7 193.148 169.277Z" fill="#2F2E41"/>
<path d="M202.074 161.395C207.874 161.395 212.575 156.69 212.575 150.885C212.575 145.081 207.874 140.376 202.074 140.376C196.274 140.376 191.572 145.081 191.572 150.885C191.572 156.69 196.274 161.395 202.074 161.395Z" fill="#2F2E41"/>
<path d="M214.151 147.207C214.15 144.557 213.148 142.006 211.347 140.064C209.545 138.123 207.077 136.934 204.437 136.737C204.698 136.718 204.959 136.697 205.224 136.697C208.01 136.697 210.681 137.805 212.65 139.776C214.619 141.746 215.726 144.42 215.726 147.207C215.726 149.994 214.619 152.667 212.65 154.638C210.681 156.609 208.01 157.717 205.224 157.717C204.959 157.717 204.698 157.696 204.437 157.677C207.077 157.48 209.545 156.291 211.347 154.349C213.148 152.408 214.15 149.857 214.151 147.207Z" fill="#2F2E41"/>
<path d="M217.564 180.312C218.869 180.312 219.926 178.901 219.926 177.159C219.926 175.418 218.869 174.007 217.564 174.007C216.259 174.007 215.201 175.418 215.201 177.159C215.201 178.901 216.259 180.312 217.564 180.312Z" fill="#FFB8B8"/>
<path d="M515.104 421.416H351.628L317.011 257.641H287.467V250.293H322.963L357.58 414.067H515.104V421.416Z" fill="#3F3D56"/>
<path d="M375.585 451.336C384.275 451.336 391.32 444.285 391.32 435.588C391.32 426.891 384.275 419.841 375.585 419.841C366.894 419.841 359.849 426.891 359.849 435.588C359.849 444.285 366.894 451.336 375.585 451.336Z" fill="#3F3D56"/>
<path d="M493.074 451.336C501.765 451.336 508.81 444.285 508.81 435.588C508.81 426.891 501.765 419.841 493.074 419.841C484.384 419.841 477.339 426.891 477.339 435.588C477.339 444.285 484.384 451.336 493.074 451.336Z" fill="#3F3D56"/>
<path d="M512.123 417.955H353.071L325.008 279.163H538.459C539.548 279.163 540.624 279.399 541.613 279.855C542.603 280.311 543.481 280.976 544.189 281.805C544.897 282.633 545.417 283.605 545.714 284.654C546.011 285.703 546.077 286.803 545.908 287.88L519.572 411.58C519.3 413.36 518.398 414.982 517.031 416.153C515.664 417.323 513.922 417.962 512.123 417.955ZM354.798 415.855H512.123C513.421 415.861 514.679 415.399 515.665 414.554C516.652 413.71 517.302 412.538 517.498 411.254L543.835 287.554C543.957 286.777 543.909 285.983 543.695 285.226C543.481 284.468 543.106 283.767 542.595 283.169C542.084 282.571 541.45 282.091 540.736 281.762C540.022 281.433 539.245 281.262 538.459 281.262H327.554L354.798 415.855Z" fill="#3F3D56"/>
<path d="M383.991 417.511L365.613 280.384L367.682 280.041L386.061 417.168L383.991 417.511Z" fill="#3F3D56"/>
<path d="M486.181 416.458L484.11 416.122L501.951 280.044L504.023 280.38L486.181 416.458Z" fill="#3F3D56"/>
<path d="M437.493 280.213H435.395V417.339H437.493V280.213Z" fill="#3F3D56"/>
<path d="M335.725 316.957L335.72 319.056L538.806 319.549L538.811 317.449L335.725 316.957Z" fill="#3F3D56"/>
<path d="M524.48 381.818L346.064 383.038L346.078 385.138L524.494 383.917L524.48 381.818Z" fill="#3F3D56"/>
<path d="M290.614 259.216C296.987 259.216 302.154 256.396 302.154 252.917C302.154 249.438 296.987 246.618 290.614 246.618C284.241 246.618 279.075 249.438 279.075 252.917C279.075 256.396 284.241 259.216 290.614 259.216Z" fill="#3F3D56"/>
</g>
<defs>
<clipPath id="clip0_21_451">
<rect width="546" height="456" fill="white"/>
</clipPath>
</defs>
</svg>
